<mxfile host="app.diagrams.net" modified="2024-04-03T18:05:54.650Z" agent="Mozilla/5.0 (Windows NT 10.0; Win64; x64) AppleWebKit/537.36 (KHTML, like Gecko) Chrome/123.0.0.0 Safari/537.36" version="24.2.1" etag="SS4DL-gnk3SV6GP9sqJV" type="github">
  <diagram name="Page-1" id="46ua71IRhqHcZm6hRbvw">
    <mxGraphModel>
      <root>
        <mxCell id="0" />
        <mxCell id="1" parent="0" />
      </root>
    </mxGraphModel>
  </diagram>
</mxfile>
